HIERARCHY
ROOT hip
{
	OFFSET 0.000000 0.000000 0.000000
	CHANNELS 6 Xposition Yposition Zposition Xrotation Yrotation Zrotation 
	JOINT lhipjoint
	{
		OFFSET 0.000000 0.000000 0.000000
		CHANNELS 3 Xrotation Yrotation Zrotation
		JOINT lfemur
		{
			OFFSET 1.363060 -1.794630 0.839290
			CHANNELS 3 Xrotation Yrotation Zrotation
			JOINT ltibia
			{
				OFFSET 2.448110 -6.726130 0.000000
				CHANNELS 3 Xrotation Yrotation Zrotation
				JOINT lfoot
				{
					OFFSET 2.562200 -7.039590 0.000000
					CHANNELS 3 Xrotation Yrotation Zrotation
					JOINT ltoes
					{
						OFFSET 0.157640 -0.433110 2.322550
						CHANNELS 3 Xrotation Yrotation Zrotation
						End Site
						{
							OFFSET 0.000000 0.000000 0.000000
						}
					}
				}
			}
		}
	}
	JOINT rhipjoint
	{
		OFFSET 0.000000 0.000000 0.000000
		CHANNELS 3 Xrotation Yrotation Zrotation
		JOINT rfemur
		{
			OFFSET -1.305520 -1.794630 0.839290
			CHANNELS 3 Xrotation Yrotation Zrotation
			JOINT rtibia
			{
				OFFSET -2.542530 -6.985550 0.000000
				CHANNELS 3 Xrotation Yrotation Zrotation
				JOINT rfoot
				{
					OFFSET -2.568260 -7.056230 0.000000
					CHANNELS 3 Xrotation Yrotation Zrotation
					JOINT rtoes
					{
						OFFSET -0.164730 -0.452590 2.363150
						CHANNELS 3 Xrotation Yrotation Zrotation
						End Site
						{
							OFFSET 0.000000 0.000000 0.000000
						}
					}
				}
			}
		}
	}
	JOINT lowerback
	{
		OFFSET 0.000000 0.000000 0.000000
		CHANNELS 3 Xrotation Yrotation Zrotation
		JOINT upperback
		{
			OFFSET 0.028270 2.035590 -0.193380
			CHANNELS 3 Xrotation Yrotation Zrotation
			JOINT thorax
			{
				OFFSET 0.056720 2.048850 -0.042750
				CHANNELS 3 Xrotation Yrotation Zrotation
				JOINT lowerneck
				{
					OFFSET 0.000000 0.000000 0.000000
					CHANNELS 3 Xrotation Yrotation Zrotation
					JOINT upperneck
					{
						OFFSET -0.054170 1.746240 0.172020
						CHANNELS 3 Xrotation Yrotation Zrotation
						JOINT head
						{
							OFFSET 0.104070 1.761360 -0.123970
							CHANNELS 3 Xrotation Yrotation Zrotation
							End Site
							{
								OFFSET 0.000000 0.000000 0.000000
							}
						}
					}
				}
				JOINT lclavicle
				{
					OFFSET 0.000000 0.000000 0.000000
					CHANNELS 3 Xrotation Yrotation Zrotation
					JOINT lhumerus
					{
						OFFSET 3.362410 1.200890 -0.311210
						CHANNELS 3 Xrotation Yrotation Zrotation
						JOINT lradius
						{
							OFFSET 4.983000 -0.000000 -0.000000
							CHANNELS 3 Xrotation Yrotation Zrotation
							JOINT lwrist
							{
								OFFSET 3.483560 -0.000000 -0.000000
								CHANNELS 3 Xrotation Yrotation Zrotation
								JOINT lhand
								{
									OFFSET 0.000000 0.000000 0.000000
									CHANNELS 3 Xrotation Yrotation Zrotation
									JOINT lfingers
									{
										OFFSET 0.715260 -0.000000 -0.000000
										CHANNELS 3 Xrotation Yrotation Zrotation
										End Site
										{
											OFFSET 0.000000 0.000000 0.000000
										}
									}
								}
								JOINT lthumb
								{
									OFFSET 0.000000 0.000000 0.000000
									CHANNELS 3 Xrotation Yrotation Zrotation
									End Site
									{
										OFFSET 0.000000 0.000000 0.000000
									}
								}
							}
						}
					}
				}
				JOINT rclavicle
				{
					OFFSET 0.000000 0.000000 0.000000
					CHANNELS 3 Xrotation Yrotation Zrotation
					JOINT rhumerus
					{
						OFFSET -3.136600 1.374050 -0.404650
						CHANNELS 3 Xrotation Yrotation Zrotation
						JOINT rradius
						{
							OFFSET -5.241900 -0.000000 -0.000000
							CHANNELS 3 Xrotation Yrotation Zrotation
							JOINT rwrist
							{
								OFFSET -3.444170 -0.000000 -0.000000
								CHANNELS 3 Xrotation Yrotation Zrotation
								JOINT rhand
								{
									OFFSET 0.000000 0.000000 0.000000
									CHANNELS 3 Xrotation Yrotation Zrotation
									JOINT rfingers
									{
										OFFSET -0.622530 -0.000000 -0.000000
										CHANNELS 3 Xrotation Yrotation Zrotation
										End Site
										{
											OFFSET 0.000000 0.000000 0.000000
										}
									}
								}
								JOINT rthumb
								{
									OFFSET 0.000000 0.000000 0.000000
									CHANNELS 3 Xrotation Yrotation Zrotation
									End Site
									{
										OFFSET 0.000000 0.000000 0.000000
									}
								}
							}
						}
					}
				}
			}
		}
	}
}
MOTION
Frames: 9
Frame Time: 0.040000
-0.464900 17.593645 17.547890 -179.801081 9.888966 178.094018 -0.072803 3.570539 4.323430 -10.649182 8.219373 -20.108145 33.875656 10.344367 -2.967478 4.460825 -8.983199 3.204484 -11.668297 -4.210007 -0.430327 -1.451602 -3.584466 -7.348246 -8.043280 5.881866 31.939806 28.216589 -9.555358 0.496199 -7.111924 4.671450 -0.029314 -9.816797 3.551009 0.305000 3.892987 -0.063424 3.745417 -3.685868 -0.568182 1.077804 -2.317069 0.102125 0.181483 3.158701 6.965980 2.250966 8.323898 9.108227 0.760166 -4.909003 5.016208 -4.772928 5.502424 -9.043658 5.567275 15.324157 -36.685912 -81.465930 4.986840 -34.266351 14.593814 -19.620806 2.608979 1.812489 -0.741614 -10.461370 22.148669 0.000000 0.000000 -7.125000 4.424086 16.451227 -5.509553 5.992879 10.862421 0.787232 19.073465 44.184256 65.489387 19.051768 40.953021 -37.509526 -8.652867 -4.213235 -1.115101 -1.688384 12.445489 -23.641122 0.000000 0.000000 7.125000 2.796333 -13.030427 3.358313 
-0.492952 17.591226 17.539377 -179.802683 9.726968 178.051268 -0.107135 3.588235 4.316412 -9.742541 8.032236 -20.376495 32.503366 9.917360 -2.709905 3.783056 -8.992456 3.102620 -12.111098 -4.366806 -0.463444 -1.371846 -3.634117 -7.352396 -8.765390 5.517864 31.888599 29.421302 -9.968421 0.715376 -7.109982 4.775964 -0.023669 -10.970402 3.962194 0.380667 3.885975 -0.222681 3.721852 -3.688723 -0.781643 1.099795 -2.328735 0.004007 0.239329 3.144067 7.039159 2.392900 8.347586 9.219806 0.726371 -4.846879 5.073604 -4.845681 5.505509 -8.994711 5.569814 15.106450 -37.525556 -81.003303 5.438249 -34.810544 15.382178 -20.101125 2.653508 1.822043 -0.775256 -10.527400 22.454847 0.000000 0.000000 -7.125000 4.210792 16.362866 -5.238251 5.974347 10.864196 0.774113 19.065086 44.206603 65.712483 18.076172 40.416467 -36.252618 -8.696188 -4.202843 -1.110731 -1.685068 12.132901 -23.630228 0.000000 0.000000 7.125000 2.803639 -13.357095 3.379063 
-0.521682 17.593935 17.533090 -179.808244 9.561825 178.014614 -0.136921 3.602825 4.305499 -8.935035 7.817119 -20.617881 31.244816 9.516765 -2.488608 3.422531 -8.864458 3.016001 -12.354902 -4.453094 -0.482256 -1.282192 -3.686482 -7.356187 -9.573663 5.128638 31.826834 30.747713 -10.415609 0.968670 -7.041667 4.853484 -0.021907 -12.415100 4.474299 0.486911 3.909645 -0.378620 3.664859 -3.695854 -0.989808 1.126881 -2.377919 -0.089436 0.368265 3.149505 7.108757 2.467764 8.362856 9.314279 0.703996 -4.794539 5.123222 -4.898828 5.508304 -8.964849 5.571218 14.903343 -38.404626 -80.548552 5.952103 -35.425792 16.261458 -20.543372 2.705055 1.834897 -0.817929 -10.617821 22.861935 0.000000 0.000000 -7.125000 3.927637 16.248437 -4.879224 5.953529 10.869888 0.762839 19.122893 44.179664 65.881625 17.078505 39.823215 -34.961606 -8.679963 -4.184686 -1.107651 -1.673498 11.828145 -23.576356 0.000000 0.000000 7.125000 2.842693 -13.681316 3.438054 
-0.551089 17.600609 17.527769 -179.819570 9.407092 177.994746 -0.168294 3.614316 4.296843 -8.180199 7.573956 -20.858069 30.064504 9.132941 -2.293953 3.280650 -8.707704 2.954417 -12.388201 -4.464798 -0.484819 -1.184726 -3.738533 -7.353857 -10.462143 4.736022 31.728258 32.180220 -10.890265 1.256945 -6.839847 4.886302 -0.027916 -13.638898 4.905406 0.586953 3.930088 -0.520092 3.600466 -3.698893 -1.177456 1.147199 -2.395429 -0.173655 0.427791 3.098568 7.150771 2.588287 8.383774 9.383647 0.699162 -4.729850 5.155485 -4.946728 5.510792 -8.922329 5.551719 14.838557 -39.339889 -79.915761 6.582256 -36.108645 17.320418 -21.016045 2.761992 1.836388 -0.869918 -10.627257 23.295846 0.000000 0.000000 -7.125000 3.618556 16.211604 -4.492425 5.926948 10.870940 0.744877 19.086007 44.169379 66.128258 16.033314 39.194812 -33.581451 -8.629944 -4.166342 -1.115424 -1.668114 11.613013 -23.617999 0.000000 0.000000 7.125000 2.821405 -13.918571 3.420807 
-0.580109 17.611637 17.524867 -179.826131 9.232183 177.974957 -0.199049 3.623140 4.287843 -7.470235 7.263218 -21.084125 28.929084 8.758097 -2.118126 3.278653 -8.502310 2.900479 -12.034002 -4.339594 -0.457657 -1.075381 -3.794341 -7.346660 -11.447796 4.312443 31.617535 33.684614 -11.378383 1.576312 -6.395096 4.819695 -0.049396 -14.863202 5.333793 0.696250 3.990034 -0.658582 3.518286 -3.703677 -1.361602 1.166314 -2.437667 -0.254362 0.490764 3.038461 7.202013 2.675362 8.392161 9.453798 0.739376 -4.669359 5.179571 -4.959753 5.512448 -8.897452 5.523744 14.802848 -40.221006 -79.223530 7.258590 -36.802093 18.435740 -21.466342 2.815418 1.837866 -0.921366 -10.679941 23.738358 0.000000 0.000000 -7.125000 3.302830 16.132153 -4.096176 5.896725 10.870188 0.717403 19.031086 44.132207 66.423750 14.991363 38.541558 -32.186156 -8.579416 -4.145548 -1.133083 -1.662726 11.469952 -23.698685 0.000000 0.000000 7.125000 2.778934 -14.086269 3.375154 
-0.609613 17.627114 17.523803 -179.834908 9.064789 177.957904 -0.231552 3.631147 4.277217 -6.789490 6.950393 -21.288827 27.822580 8.388954 -1.957199 3.337555 -8.303808 2.855767 -11.752204 -4.239790 -0.436600 -0.954075 -3.855314 -7.333860 -12.537070 3.834352 31.483802 35.244574 -11.873258 1.925288 -5.624609 4.598371 -0.091366 -16.014496 5.734011 0.807224 4.068346 -0.786565 3.437228 -3.708569 -1.532632 1.185540 -2.495403 -0.327195 0.558968 2.999485 7.247547 2.722560 8.383951 9.510477 0.788783 -4.628907 5.196048 -4.955733 5.517904 -8.883233 5.495441 14.727825 -40.956688 -78.579012 7.988400 -37.524544 19.612330 -21.693434 2.871992 1.831254 -0.978431 -10.730082 24.195549 0.000000 0.000000 -7.125000 2.970905 16.051293 -3.680722 5.865511 10.868226 0.671469 18.809817 43.952793 66.871207 13.859210 37.807685 -30.640366 -8.328252 -4.116950 -1.159608 -1.652601 11.433520 -23.798660 0.000000 0.000000 7.125000 2.728451 -14.154411 3.316034 
-0.638729 17.645687 17.525061 -179.851776 8.907746 177.927214 -0.263860 3.637281 4.264228 -6.168467 6.618129 -21.461405 26.764803 8.033449 -1.813064 3.456905 -8.089431 2.814544 -11.140599 -4.022703 -0.392468 -0.820192 -3.917944 -7.317962 -13.717788 3.365546 31.358546 36.858099 -12.371741 2.304103 -4.602937 4.272713 -0.145763 -16.572697 5.927009 0.863937 4.166880 -0.900793 3.356388 -3.716085 -1.685780 1.206944 -2.581575 -0.390550 0.631538 2.968196 7.279431 2.773510 8.368934 9.547698 0.841920 -4.591231 5.202952 -4.953250 5.525117 -8.880331 5.471138 14.708573 -41.656035 -77.900314 8.806271 -38.274801 20.888767 -21.928210 2.931782 1.816883 -1.033400 -10.726858 24.543935 0.000000 0.000000 -7.125000 2.711422 16.013529 -3.357298 5.828026 10.876336 0.609454 18.333006 43.552102 67.568652 12.627890 36.965740 -28.913485 -7.704928 -4.075255 -1.192834 -1.627288 11.529767 -23.833327 0.000000 0.000000 7.125000 2.728097 -14.097880 3.313709 
-0.667943 17.667065 17.528640 -179.868863 8.739464 177.914151 -0.295220 3.640871 4.251858 -5.666228 6.287451 -21.628447 25.800958 7.707861 -1.691303 3.646528 -7.859990 2.777682 -10.528601 -3.804997 -0.350732 -0.678245 -3.983062 -7.292337 -14.964056 2.854078 31.175068 38.533210 -12.875901 2.716150 -3.298816 3.845806 -0.209472 -16.774896 5.996710 0.884929 4.295119 -1.006479 3.271812 -3.725212 -1.828527 1.223025 -2.694483 -0.447555 0.664020 2.943606 7.336747 2.807907 8.353846 9.607865 0.939966 -4.553693 5.212847 -4.915794 5.532621 -8.894478 5.437611 14.740757 -42.339229 -77.128909 9.656425 -38.987890 22.190623 -22.176974 2.985600 1.799819 -1.083391 -10.714027 24.836719 0.000000 0.000000 -7.125000 2.489603 15.987510 -3.081493 5.786240 10.884118 0.524559 17.731859 43.015440 68.406150 11.371084 36.062445 -27.098085 -6.869146 -4.025522 -1.233495 -1.595644 11.707567 -23.867883 0.000000 0.000000 7.125000 2.732879 -13.966112 3.314882 
-0.696382 17.686799 17.534928 -179.904949 8.574355 177.905954 -0.329938 3.642733 4.237336 -5.273779 6.034855 -21.760307 24.958166 7.422776 -1.593763 3.873079 -7.709338 2.765250 -10.015398 -3.621905 -0.317442 -0.526393 -4.049719 -7.262667 -16.309176 2.345846 30.964965 40.278772 -13.386407 3.164730 -1.826799 3.354250 -0.273205 -15.943902 5.709495 0.800233 4.414099 -1.097694 3.178734 -3.730711 -1.950606 1.241255 -2.781721 -0.492937 0.739632 2.899083 7.370166 2.767922 8.324022 9.635744 1.039933 -4.531991 5.207657 -4.855437 5.536773 -8.906072 5.404178 14.688574 -43.013162 -76.385078 10.529053 -39.680635 23.492306 -22.389847 3.036256 1.784033 -1.128961 -10.723895 25.086010 0.000000 0.000000 -7.125000 2.299519 15.938157 -2.844486 5.743232 10.878210 0.437939 17.187684 42.451124 69.124784 10.129689 35.092004 -25.259952 -6.054202 -3.965019 -1.276485 -1.557329 11.842335 -23.888946 0.000000 0.000000 7.125000 2.749378 -13.887737 3.332270 
